# xmcd
# Copyright (C) 1995-1998 Ti Kan
#
# Track frame offsets:
#       150
#       29814
#       56220
#
# Disc length: 909 seconds
#
# Revision: 2
# Processed by: cddbd v1.5.2PL0 Copyright (c) Steve Scherf et al.
# Submitted via: CD-Import v1.0
#
DISCID=29038b03
DTITLE=Caetano Veloso, Gilberto Gil And Joao Gilberto - Lied Der Woche
DYEAR=81
DGENRE=
TTITLE0=Brazil
TTITLE1=Brazil
TTITLE2=Brazil
EXTD=
EXTT0=
EXTT1=
EXTT2=
PLAYORDER=
